# xmcd CD database file
#
# Track frame offsets:
#	150
#	21150
#	39525
#	59025
#	82650
#	105487
#	120562
#	140512
#	157237
#	181087
#	202912
#
# Disc length: 2874 seconds
#
# Revision: 0
# Processed by: cddbd v1.5.2PL0 Copyright (c) Steve Scherf et al.
# Submitted via: CDex 1.51
#
DISCID=8c0b380b
DTITLE=Basin Street Cafe - Takeaway gumbo
DYEAR=2004
DGENRE=Jazz
TTITLE0=Alligator tango
TTITLE1=Barrelhouse plonker
TTITLE2=It might rain
TTITLE3=Soft lies
TTITLE4=Old noir jack rag
TTITLE5=Behind those glasses
TTITLE6=Petite fleur
TTITLE7=Junco partner
TTITLE8=By the swamp
TTITLE9=You can depend on me
TTITLE10=Alexander's midnight lullaby
EXTD=YEAR: 2004
EXTT0=
EXTT1=
EXTT2=
EXTT3=
EXTT4=
EXTT5=
EXTT6=
EXTT7=
EXTT8=
EXTT9=
EXTT10=
PLAYORDER=
